<?xml version="1.0" encoding="UTF-8" standalone="no"?>
<!-- Created with Inkscape (http://www.inkscape.org/) -->

<svg
   version="1.1"
   id="svg2"
   width="744.72729"
   height="526.54547"
   viewBox="0 0 744.72729 526.54547"
   sodipodi:docname="art.svg"
   inkscape:version="1.1.2 (0a00cf5339, 2022-02-04)"
   xmlns:inkscape="http://www.inkscape.org/namespaces/inkscape"
   xmlns:sodipodi="http://sodipodi.sourceforge.net/DTD/sodipodi-0.dtd"
   xmlns="http://www.w3.org/2000/svg"
   xmlns:svg="http://www.w3.org/2000/svg">
  <defs
     id="defs6" />
  <sodipodi:namedview
     id="namedview4"
     pagecolor="#ffffff"
     bordercolor="#666666"
     borderopacity="1.0"
     inkscape:pageshadow="2"
     inkscape:pageopacity="0.0"
     inkscape:pagecheckerboard="0"
     showgrid="false"
     inkscape:zoom="0.97253604"
     inkscape:cx="494.58321"
     inkscape:cy="64.77909"
     inkscape:window-width="1920"
     inkscape:window-height="1021"
     inkscape:window-x="0"
     inkscape:window-y="17"
     inkscape:window-maximized="1"
     inkscape:current-layer="g8" />
  <g
     inkscape:groupmode="layer"
     inkscape:label="Image"
     id="g8"
     style="display:inline">
    <path
       style="display:inline;fill:#000000;stroke-width:0.318937"
       d="m -7.4828071,77.233456 c -15.5161099,-1.44836 -30.3338899,-7.70952 -42.6165699,-17.21836 -6.88004,8.19815 -20.9987,-0.39821 -16.81173,-10.26638 6.54494,-6.30916 -4.82491,-12.04524 -5.79028,-18.92917 -3.54407,-7.66193 -5.88187,-15.84738 -7.07102,-24.199121 -8.917003,0.41442 -14.152505,-11.4483097 -7.665289,-17.65327 5.673245,-2.402259 9.305679,-4.495749 9.134399,-11.417759 0.56328,-9.40889 8.75278,-18.5715 9.22372,-26.54775 -7.60167,-7.7663 3.21153,-20.2452 12.32102,-15.37194 4.10006,1.47227 7.17342,-5.47767 11.17467,-6.77755 5.23817,-1.82769 5.23436,-6.84729 6.68274,-11.4781 9.15008,-21.714466 37.95941986,-28.681476 58.15453,-18.799406 10.89471,4.917886 19.50823,15.077696 21.29076,27.057836 6.78419,4.12553 12.14662,14.2941 20.70395,9.20461 9.13632,-1.21578 14.40767,12.22089 6.55358,17.36114 0.60865,5.12283 6.21128,11.63457 7.36297,17.78114 3.34681,4.44673 0.48262,15.37493 5.94526,16.21551 10.08954,-0.37871 12.72192,15.4647293 3.82739,19.2437393 -6.37803,-0.76842 -6.78822,3.1980907 -7.26498,8.5074307 -2.36672,11.25965 -7.39412,21.82194 -14.00644,31.195 9.75635,6.87106 -0.32501,23.13255 -10.78932,16.87505 -4.36294,-5.62439 -8.75498,3.98892 -13.65185,4.93734 -14.06426,8.22133 -30.5288701,11.49942 -46.7075101,10.28001 z m 6.06058,-29.73664 c 0.0526,-13.89903 -0.0643,-27.80366 0.4196,-41.6966507 -8.91633,-1.72666 -3.58668,-10.1993899 -0.25769,-12.91577 0.053,-25.3573193 0.1059,-50.7146393 0.15886,-76.0719593 -31.4035199,-0.0838 -61.1735799,21.05228 -71.8920499,50.49317 -12.194107,30.6319093 -2.80691,68.12942 22.47203,89.31201 13.52922,11.6357 31.20202,18.63929 49.0985499,18.70639 2.5e-4,-9.27568 3.4e-4,-18.55176 7e-4,-27.82719 z m -29.3557299,10.82704 c -10.45656,-7.24478 9.51425,-16.25422 7.89023,-3.75293 -0.61058,3.37869 -4.82232,5.72384 -7.89023,3.75293 z m -27.89422,-43.72144 c -11.14213,-5.88866 5.70698,-17.7793806 7.81146,-5.57742 0.44179,4.01553 -4.13226,7.37709 -7.81146,5.57742 z m 8.42684,-47.80422 c -9.6221,-7.11949 8.34021,-16.64796 8.77793,-4.92228 0.16119,4.37127 -5.14167,7.15211 -8.77793,4.92228 z m 62.37714,107.57584 c 31.51498,-4.76758 57.80227,-30.96435 63.70335,-62.12736 6.39055,-30.0893 -6.34778,-63.1866 -31.58458,-80.88617 -12.43505,-8.98017 -27.62423,-14.01682 -42.9363301,-14.50555 -0.29003,25.83726 -0.30491,51.67729 -0.44677004,77.5158993 7.31277004,2.1883701 3.51726004,9.72925 -0.058,12.4702197 0,22.860121 0,45.720241 0,68.580361 3.78845004,-0.17187 7.57931004,-0.39804 11.32226014,-1.0474 z m 13.81114,-15.96656 c -11.34457,-7.83409 10.31829,-16.37786 7.41667,-2.94811 -0.83632,3.01426 -4.7422,4.37859 -7.41667,2.94811 z m 27.96959,-43.98061 c -10.71902,-6.897881 9.69885,-17.5742406 8.37193,-4.26804 -0.49967,3.72927 -5.08486,5.95885 -8.37193,4.26804 z m -9.53305,-47.65776 c -11.73216,-11.07339 15.58531,-14.27343 6.88459,-0.70637 -1.74881,1.87154 -4.75656,1.81199 -6.88459,0.70637 z m -78.41246,-46.84704 c 5.6094,-1.78139 16.66162,-12.82205 7.54787,-15.78706 -5.00223,2.67472 -11.80655,12.77699 -9.51183,16.75768 l 0.82284,-0.31386 z m 67.91167,0.34308 c 1.25215,-5.09342 -6.36066,-9.17061 -7.42401,-14.95915 -11.30379,-4.0995 -3.78467,12.45976 2.58078,13.94728 1.36731,0.79143 3.35767,2.68423 4.84323,1.01187 z M -6.4766171,-100.10464 c 4.46189,-9.40582 -12.7571699,1.847466 -1.28869,1.085726 z m 17.4655601,0.472786 c 2.7157,-6.611386 -11.20980014,-4.370086 -3.0920801,0.14015 0.9,0.6485 2.3169101,0.70212 3.0920801,-0.14015 z"
       id="path12" />
  </g>
</svg>
