<?xml version="1.0" encoding="UTF-8" standalone="no"?>
<!-- Created with Inkscape (http://www.inkscape.org/) -->

<svg
   version="1.1"
   id="svg2"
   width="744.72729"
   height="526.54547"
   viewBox="0 0 744.72729 526.54547"
   sodipodi:docname="art_no_leds.svg"
   inkscape:version="1.1.2 (0a00cf5339, 2022-02-04)"
   xmlns:inkscape="http://www.inkscape.org/namespaces/inkscape"
   xmlns:sodipodi="http://sodipodi.sourceforge.net/DTD/sodipodi-0.dtd"
   xmlns="http://www.w3.org/2000/svg"
   xmlns:svg="http://www.w3.org/2000/svg">
  <defs
     id="defs6" />
  <sodipodi:namedview
     id="namedview4"
     pagecolor="#ffffff"
     bordercolor="#666666"
     borderopacity="1.0"
     inkscape:pageshadow="2"
     inkscape:pageopacity="0.0"
     inkscape:pagecheckerboard="0"
     showgrid="false"
     inkscape:zoom="6.3760887"
     inkscape:cx="-0.47050789"
     inkscape:cy="-38.424811"
     inkscape:window-width="1920"
     inkscape:window-height="1021"
     inkscape:window-x="0"
     inkscape:window-y="17"
     inkscape:window-maximized="1"
     inkscape:current-layer="g8" />
  <g
     inkscape:groupmode="layer"
     inkscape:label="Image"
     id="g8"
     style="display:inline">
    <path
       style="display:inline;fill:#000000;stroke-width:0.318937"
       d="m 10.988943,-99.631854 c 2.7157,-6.611386 -11.20980014,-4.370086 -3.0920801,0.14015 0.9,0.6485 2.3169101,0.70212 3.0920801,-0.14015 z"
       id="path870" />
    <path
       style="display:inline;fill:#000000;stroke-width:0.318937"
       d="m -6.4766171,-100.10464 c 4.46189,-9.40582 -12.7571699,1.847466 -1.28869,1.085726 z"
       id="path868" />
    <path
       style="display:inline;fill:#000000;stroke-width:0.318937"
       d="m 33.878693,-79.734854 c 1.25215,-5.09342 -6.36066,-9.17061 -7.42401,-14.95915 -11.30379,-4.0995 -3.78467,12.45976 2.58078,13.94728 1.36731,0.79143 3.35767,2.68423 4.84323,1.01187 z"
       id="path866" />
    <path
       style="display:inline;fill:#000000;stroke-width:0.318937"
       d="m -34.032977,-80.077934 c 5.6094,-1.78139 16.66162,-12.82205 7.54787,-15.78706 -5.00223,2.67472 -11.80655,12.77699 -9.51183,16.75768 l 0.82284,-0.31386 z"
       id="path864" />
    <path
       style="display:inline;fill:#000000;stroke-width:0.318937"
       d="m 12.131803,74.374036 c 31.51498,-4.76758 57.80227,-30.96435 63.70335,-62.12736 6.39055,-30.0893 -6.34778,-63.1866 -31.58458,-80.88617 -12.43505,-8.98017 -27.003032,-14.01682 -42.3151318,-14.50555 -0.29003,25.83726 0.4405203,51.67729 0.2986603,77.5158993 C 2.1831253,1.1976319 2.0985048,2.4490586 2.1139855,6.841075 L 1.9276279,75.421436 c 3.78845,-0.17187 6.461155,-0.39804 10.2041051,-1.0474 z"
       id="path856"
       sodipodi:nodetypes="sccccccss" />
    <path
       style="display:inline;fill:#000000;stroke-width:0.318937"
       d="m -2.2919085,47.496816 c 0.046256,-18.185657 -0.3869662,-40.0862523 -0.2108052,-54.9851359 0.053,-25.3573191 0.4786247,-50.3419241 0.5315847,-75.6992441 -31.40352,-0.0838 -60.303908,21.05228 -71.022378,50.49317 -12.194107,30.6319093 -2.80691,68.12942 22.47203,89.31201 13.52922,11.6357 30.270223,18.63929 48.1667525,18.70639 2.5e-4,-9.27568 0.062456,-18.55176 0.062816,-27.82719 z"
       id="path848"
       sodipodi:nodetypes="ccccccc" />
    <path
       style="display:none;fill:#000000;stroke-width:0.318937"
       d="m -7.4828071,77.233456 c -15.5161099,-1.44836 -30.3338899,-7.70952 -42.6165699,-17.21836 -6.88004,8.19815 -20.9987,-0.39821 -16.81173,-10.26638 6.54494,-6.30916 -4.82491,-12.04524 -5.79028,-18.92917 -3.54407,-7.66193 -5.88187,-15.84738 -7.07102,-24.199121 -8.917003,0.41442 -14.152505,-11.4483097 -7.665289,-17.65327 5.673245,-2.402259 9.305679,-4.495749 9.134399,-11.417759 0.56328,-9.40889 8.75278,-18.5715 9.22372,-26.54775 -7.60167,-7.7663 3.21153,-20.2452 12.32102,-15.37194 4.10006,1.47227 7.17342,-5.47767 11.17467,-6.77755 5.23817,-1.82769 5.23436,-6.84729 6.68274,-11.4781 9.15008,-21.714466 37.95941986,-28.681476 58.15453,-18.799406 10.89471,4.917886 19.50823,15.077696 21.29076,27.057836 6.78419,4.12553 12.14662,14.2941 20.70395,9.20461 9.13632,-1.21578 14.40767,12.22089 6.55358,17.36114 0.60865,5.12283 6.21128,11.63457 7.36297,17.78114 3.34681,4.44673 0.48262,15.37493 5.94526,16.21551 10.08954,-0.37871 12.72192,15.4647293 3.82739,19.2437393 -6.37803,-0.76842 -6.78822,3.1980907 -7.26498,8.5074307 -2.36672,11.25965 -7.39412,21.82194 -14.00644,31.195 9.75635,6.87106 -0.32501,23.13255 -10.78932,16.87505 -4.36294,-5.62439 -8.75498,3.98892 -13.65185,4.93734 -14.06426,8.22133 -30.5288701,11.49942 -46.7075101,10.28001 z"
       id="path12" />
  </g>
</svg>
