<?xml version="1.0" encoding="UTF-8" standalone="no"?>
<!-- Created with Inkscape (http://www.inkscape.org/) -->

<svg
   version="1.1"
   id="svg2"
   width="744.72729"
   height="526.54547"
   viewBox="0 0 744.72729 526.54547"
   sodipodi:docname="outline.svg"
   inkscape:version="1.1.2 (0a00cf5339, 2022-02-04)"
   xmlns:inkscape="http://www.inkscape.org/namespaces/inkscape"
   xmlns:sodipodi="http://sodipodi.sourceforge.net/DTD/sodipodi-0.dtd"
   xmlns="http://www.w3.org/2000/svg"
   xmlns:svg="http://www.w3.org/2000/svg">
  <defs
     id="defs6" />
  <sodipodi:namedview
     id="namedview4"
     pagecolor="#ffffff"
     bordercolor="#666666"
     borderopacity="1.0"
     inkscape:pageshadow="2"
     inkscape:pageopacity="0.0"
     inkscape:pagecheckerboard="0"
     showgrid="false"
     inkscape:zoom="0.97253604"
     inkscape:cx="494.58321"
     inkscape:cy="64.77909"
     inkscape:window-width="1920"
     inkscape:window-height="1021"
     inkscape:window-x="0"
     inkscape:window-y="17"
     inkscape:window-maximized="1"
     inkscape:current-layer="g8" />
  <g
     inkscape:groupmode="layer"
     inkscape:label="Image"
     id="g8"
     style="display:inline">
    <path
       style="display:inline;fill:#000000;stroke-width:0.318937"
       d="m -7.4828071,77.233456 c -15.5161099,-1.44836 -30.3338899,-7.70952 -42.6165699,-17.21836 -6.88004,8.19815 -20.9987,-0.39821 -16.81173,-10.26638 6.54494,-6.30916 -4.82491,-12.04524 -5.79028,-18.92917 -3.54407,-7.66193 -5.88187,-15.84738 -7.07102,-24.199121 -8.917003,0.41442 -14.152505,-11.4483097 -7.665289,-17.65327 5.673245,-2.402259 9.305679,-4.495749 9.134399,-11.417759 0.56328,-9.40889 8.75278,-18.5715 9.22372,-26.54775 -7.60167,-7.7663 3.21153,-20.2452 12.32102,-15.37194 4.10006,1.47227 7.17342,-5.47767 11.17467,-6.77755 5.23817,-1.82769 5.23436,-6.84729 6.68274,-11.4781 9.15008,-21.714466 37.95941986,-28.681476 58.15453,-18.799406 10.89471,4.917886 19.50823,15.077696 21.29076,27.057836 6.78419,4.12553 12.14662,14.2941 20.70395,9.20461 9.13632,-1.21578 14.40767,12.22089 6.55358,17.36114 0.60865,5.12283 6.21128,11.63457 7.36297,17.78114 3.34681,4.44673 0.48262,15.37493 5.94526,16.21551 10.08954,-0.37871 12.72192,15.4647293 3.82739,19.2437393 -6.37803,-0.76842 -6.78822,3.1980907 -7.26498,8.5074307 -2.36672,11.25965 -7.39412,21.82194 -14.00644,31.195 9.75635,6.87106 -0.32501,23.13255 -10.78932,16.87505 -4.36294,-5.62439 -8.75498,3.98892 -13.65185,4.93734 -14.06426,8.22133 -30.5288701,11.49942 -46.7075101,10.28001 z"
       id="path12" />
  </g>
</svg>
